/* XPM */
static char *ceiling_texture[] = {
/* columns rows colors chars-per-pixel */
"64 64 2 1 ",
"  c SkyBlue",
". c #9797DEDEEBEB",
/* pixels */
".................               .................               ",
".................               .................               ",
".................               .................               ",
".................               .................               ",
".................               .................               ",
".................               .................               ",
".................               .................               ",
".................               .................               ",
".................               .................               ",
".................               .................               ",
".................               .................               ",
".................               .................               ",
".................               .................               ",
".................               .................               ",
".................               .................               ",
".................               .................               ",
"................................................................",
"                .................               ................",
"                .................               ................",
"                .................               ................",
"                .................               ................",
"                .................               ................",
"                .................               ................",
"                .................               ................",
"                .................               ................",
"                .................               ................",
"                .................               ................",
"                .................               ................",
"                .................               ................",
"                .................               ................",
"                .................               ................",
"                .................               ................",
"................................................................",
".................               .................               ",
".................               .................               ",
".................               .................               ",
".................               .................               ",
".................               .................               ",
".................               .................               ",
".................               .................               ",
".................               .................               ",
".................               .................               ",
".................               .................               ",
".................               .................               ",
".................               .................               ",
".................               .................               ",
".................               .................               ",
".................               .................               ",
"................................................................",
"                .................               ................",
"                .................               ................",
"                .................               ................",
"                .................               ................",
"                .................               ................",
"                .................               ................",
"                .................               ................",
"                .................               ................",
"                .................               ................",
"                .................               ................",
"                .................               ................",
"                .................               ................",
"                .................               ................",
"                .................               ................",
"                .................               ................"
};
